<svg xmlns="http://www.w3.org/2000/svg" viewBox="0 0 400 300" role="img" aria-label="coffee black"><defs>
<linearGradient id="tile" x1="0" y1="0" x2="0.35" y2="1">
  <stop offset="0" stop-color="#fffdf8"/><stop offset="0.55" stop-color="#fdf1e0"/><stop offset="1" stop-color="#f6e2c8"/>
</linearGradient>
<radialGradient id="glow" cx=".5" cy=".42" r=".62">
  <stop offset="0" stop-color="#ffffff" stop-opacity=".85"/><stop offset="1" stop-color="#ffffff" stop-opacity="0"/>
</radialGradient>
<radialGradient id="shadow" cx=".5" cy=".5" r=".5">
  <stop offset="0" stop-color="#6b4a2a" stop-opacity=".26"/><stop offset="1" stop-color="#6b4a2a" stop-opacity="0"/>
</radialGradient>
<linearGradient id="glass" x1="0" y1="0" x2="1" y2="0">
  <stop offset="0" stop-color="#ffffff" stop-opacity=".0"/>
  <stop offset=".22" stop-color="#ffffff" stop-opacity=".34"/>
  <stop offset=".5" stop-color="#ffffff" stop-opacity=".05"/>
  <stop offset="1" stop-color="#ffffff" stop-opacity=".22"/>
</linearGradient>
</defs><rect width="400" height="300" fill="url(#tile)"/><rect width="400" height="300" fill="#f0e8de" opacity=".55"/><rect y="216" width="400" height="84" fill="#ddccb8" opacity=".75"/><rect width="400" height="300" fill="url(#glow)"/><g fill="none" stroke="#ffffff" stroke-linecap="round" stroke-width="7" opacity=".75">
<path d="M178,112 c-9,-16 11,-24 3,-40"><animate attributeName="opacity" values=".35;.85;.35" dur="4.4s" repeatCount="indefinite"/></path>
<path d="M202,102 c10,-18 -12,-26 -2,-42"><animate attributeName="opacity" values=".8;.3;.8" dur="5.2s" repeatCount="indefinite"/></path>
<path d="M224,114 c8,-14 -10,-22 -3,-34"><animate attributeName="opacity" values=".45;.9;.45" dur="4.8s" repeatCount="indefinite"/></path>
</g><ellipse cx="200" cy="250" rx="112" ry="22" fill="url(#shadow)"/><path d="M248,144 C312,148 312,200 246,204" fill="none" stroke="#43290f" stroke-width="7" stroke-linecap="round"/><path d="M144,122 L256,122 L251,222 Q251,238 235,238 L165,238 Q149,238 149,222 Z" fill="#fffdf8"/><path d="M144,122 L256,122 L251,222 Q251,238 235,238 L165,238 Q149,238 149,222 Z" fill="none" stroke="#43290f" stroke-width="4.2" stroke-linejoin="round"/><path d="M154,140 L161,216" stroke="#ffffff" stroke-width="12" stroke-linecap="round" opacity=".85"/><path d="M244,148 L237,208" stroke="#e8d5bb" stroke-width="7" stroke-linecap="round" opacity=".8"/><ellipse cx="200" cy="122" rx="56" ry="13" fill="#efe0c9"/><ellipse cx="200" cy="122" rx="56" ry="13" fill="none" stroke="#43290f" stroke-width="4.2"/><ellipse cx="200" cy="123" rx="46" ry="10" fill="#231006"/><ellipse cx="200" cy="123" rx="39" ry="8" fill="#7a4a24"/><ellipse cx="183" cy="119" rx="16" ry="4" fill="#ffffff" opacity=".4"/><circle cx="274" cy="256" r="3.4" fill="#4a2c17"/><circle cx="293" cy="267" r="3.4" fill="#4a2c17"/><circle cx="312" cy="264" r="3.4" fill="#4a2c17"/><circle cx="283" cy="261" r="3.4" fill="#4a2c17"/><circle cx="302" cy="258" r="3.4" fill="#4a2c17"/></svg>