<svg xmlns="http://www.w3.org/2000/svg" viewBox="0 0 400 300" role="img" aria-label="juice orange"><defs>
<linearGradient id="tile" x1="0" y1="0" x2="0.35" y2="1">
  <stop offset="0" stop-color="#fffdf8"/><stop offset="0.55" stop-color="#fdf1e0"/><stop offset="1" stop-color="#f6e2c8"/>
</linearGradient>
<radialGradient id="glow" cx=".5" cy=".42" r=".62">
  <stop offset="0" stop-color="#ffffff" stop-opacity=".85"/><stop offset="1" stop-color="#ffffff" stop-opacity="0"/>
</radialGradient>
<radialGradient id="shadow" cx=".5" cy=".5" r=".5">
  <stop offset="0" stop-color="#6b4a2a" stop-opacity=".26"/><stop offset="1" stop-color="#6b4a2a" stop-opacity="0"/>
</radialGradient>
<linearGradient id="glass" x1="0" y1="0" x2="1" y2="0">
  <stop offset="0" stop-color="#ffffff" stop-opacity=".0"/>
  <stop offset=".22" stop-color="#ffffff" stop-opacity=".34"/>
  <stop offset=".5" stop-color="#ffffff" stop-opacity=".05"/>
  <stop offset="1" stop-color="#ffffff" stop-opacity=".22"/>
</linearGradient>
</defs><rect width="400" height="300" fill="url(#tile)"/><rect width="400" height="300" fill="#fff4de" opacity=".55"/><rect y="216" width="400" height="84" fill="#ffe2b4" opacity=".75"/><rect width="400" height="300" fill="url(#glow)"/><ellipse cx="190" cy="252" rx="112" ry="22" fill="url(#shadow)"/><g transform="rotate(15 216 86)"><rect x="210" y="22" width="15" height="150" rx="7.5" fill="#e2731f" stroke="#43290f" stroke-width="4.2"/><rect x="213" y="26" width="4" height="140" rx="2" fill="#ffffff" opacity=".45"/></g><clipPath id="cc"><path d="M138,106 L242,106 L231,228 Q231,240 219,240 L161,240 Q149,240 149,228 Z"/></clipPath><g clip-path="url(#cc)"><rect x="132" y="132" width="116" height="116" fill="#f79c1e"/><rect x="162" y="158" width="32" height="32" rx="9" fill="#ffffff" fill-opacity=".34" stroke="#ffffff" stroke-opacity=".9" stroke-width="3.2" transform="rotate(-14 178 174)"/><rect x="198" y="146" width="32" height="32" rx="9" fill="#ffffff" fill-opacity=".34" stroke="#ffffff" stroke-opacity=".9" stroke-width="3.2" transform="rotate(12 214 162)"/><rect x="176" y="188" width="32" height="32" rx="9" fill="#ffffff" fill-opacity=".34" stroke="#ffffff" stroke-opacity=".9" stroke-width="3.2" transform="rotate(8 192 204)"/><rect x="206" y="184" width="32" height="32" rx="9" fill="#ffffff" fill-opacity=".34" stroke="#ffffff" stroke-opacity=".9" stroke-width="3.2" transform="rotate(-10 222 200)"/></g><path d="M138,106 L242,106 L231,228 Q231,240 219,240 L161,240 Q149,240 149,228 Z" fill="url(#glass)"/><path d="M138,106 L242,106 L231,228 Q231,240 219,240 L161,240 Q149,240 149,228 Z" fill="none" stroke="#43290f" stroke-width="4.2" stroke-linejoin="round"/><path d="M144,116 L157,222" stroke="#ffffff" stroke-opacity=".7" stroke-width="7" stroke-linecap="round"/><ellipse cx="190" cy="106" rx="52" ry="10" fill="#ffffff" fill-opacity=".35" stroke="#43290f" stroke-width="4.2"/><g transform="rotate(10 292 216)"><circle cx="292" cy="216" r="32" fill="#ffdd93" stroke="#43290f" stroke-width="4.2"/><circle cx="292" cy="216" r="26" fill="#f08c1c" opacity=".85"/><circle cx="292" cy="216" r="24" fill="#ffdd93"/><ellipse cx="292" cy="199" rx="5.4" ry="14.1" fill="#ffdd93" transform="rotate(0 292 216)"/><ellipse cx="292" cy="199" rx="5.4" ry="14.1" fill="#ffdd93" transform="rotate(45 292 216)"/><ellipse cx="292" cy="199" rx="5.4" ry="14.1" fill="#ffdd93" transform="rotate(90 292 216)"/><ellipse cx="292" cy="199" rx="5.4" ry="14.1" fill="#ffdd93" transform="rotate(135 292 216)"/><ellipse cx="292" cy="199" rx="5.4" ry="14.1" fill="#ffdd93" transform="rotate(180 292 216)"/><ellipse cx="292" cy="199" rx="5.4" ry="14.1" fill="#ffdd93" transform="rotate(225 292 216)"/><ellipse cx="292" cy="199" rx="5.4" ry="14.1" fill="#ffdd93" transform="rotate(270 292 216)"/><ellipse cx="292" cy="199" rx="5.4" ry="14.1" fill="#ffdd93" transform="rotate(315 292 216)"/></g><g transform="rotate(24 316 258)"><ellipse cx="316" cy="258" rx="11" ry="19" fill="#5cb85f" stroke="#43290f" stroke-width="3.2"/><path d="M316,241 L316,275" stroke="#2f7a3a" stroke-width="2.6"/></g></svg>