<svg xmlns="http://www.w3.org/2000/svg" viewBox="0 0 400 300" role="img" aria-label="tea lemon"><defs>
<linearGradient id="tile" x1="0" y1="0" x2="0.35" y2="1">
  <stop offset="0" stop-color="#fffdf8"/><stop offset="0.55" stop-color="#fdf1e0"/><stop offset="1" stop-color="#f6e2c8"/>
</linearGradient>
<radialGradient id="glow" cx=".5" cy=".42" r=".62">
  <stop offset="0" stop-color="#ffffff" stop-opacity=".85"/><stop offset="1" stop-color="#ffffff" stop-opacity="0"/>
</radialGradient>
<radialGradient id="shadow" cx=".5" cy=".5" r=".5">
  <stop offset="0" stop-color="#6b4a2a" stop-opacity=".26"/><stop offset="1" stop-color="#6b4a2a" stop-opacity="0"/>
</radialGradient>
<linearGradient id="glass" x1="0" y1="0" x2="1" y2="0">
  <stop offset="0" stop-color="#ffffff" stop-opacity=".0"/>
  <stop offset=".22" stop-color="#ffffff" stop-opacity=".34"/>
  <stop offset=".5" stop-color="#ffffff" stop-opacity=".05"/>
  <stop offset="1" stop-color="#ffffff" stop-opacity=".22"/>
</linearGradient>
</defs><rect width="400" height="300" fill="url(#tile)"/><rect width="400" height="300" fill="#fff8e8" opacity=".55"/><rect y="216" width="400" height="84" fill="#fbe9bd" opacity=".75"/><rect width="400" height="300" fill="url(#glow)"/><g fill="none" stroke="#ffffff" stroke-linecap="round" stroke-width="7" opacity=".75">
<path d="M178,112 c-9,-16 11,-24 3,-40"><animate attributeName="opacity" values=".35;.85;.35" dur="4.4s" repeatCount="indefinite"/></path>
<path d="M202,102 c10,-18 -12,-26 -2,-42"><animate attributeName="opacity" values=".8;.3;.8" dur="5.2s" repeatCount="indefinite"/></path>
<path d="M224,114 c8,-14 -10,-22 -3,-34"><animate attributeName="opacity" values=".45;.9;.45" dur="4.8s" repeatCount="indefinite"/></path>
</g><ellipse cx="200" cy="252" rx="112" ry="22" fill="url(#shadow)"/><path d="M248,142 C312,146 312,202 246,206" fill="none" stroke="#43290f" stroke-width="7" stroke-linecap="round"/><path d="M144,120 L256,120 L250,224 Q250,240 234,240 L166,240 Q150,240 150,224 Z" fill="#fffdf8"/><path d="M144,120 L256,120 L250,224 Q250,240 234,240 L166,240 Q150,240 150,224 Z" fill="none" stroke="#43290f" stroke-width="4.2" stroke-linejoin="round"/><path d="M154,138 L162,218" stroke="#ffffff" stroke-width="12" stroke-linecap="round" opacity=".85"/><path d="M244,146 L236,210" stroke="#e8d5bb" stroke-width="7" stroke-linecap="round" opacity=".8"/><ellipse cx="200" cy="120" rx="56" ry="13" fill="#efe0c9"/><ellipse cx="200" cy="120" rx="56" ry="13" fill="none" stroke="#43290f" stroke-width="4.2"/><ellipse cx="200" cy="121" rx="46" ry="10" fill="#c9862c"/><ellipse cx="200" cy="121" rx="39" ry="8" fill="#eecfa0"/><ellipse cx="183" cy="117" rx="16" ry="4" fill="#ffffff" opacity=".4"/><g transform="rotate(14 296 240)"><circle cx="296" cy="240" r="30" fill="#fff3c2" stroke="#43290f" stroke-width="4.2"/><circle cx="296" cy="240" r="24" fill="#f0b429" opacity=".85"/><circle cx="296" cy="240" r="22" fill="#fff3c2"/><ellipse cx="296" cy="224" rx="5.1" ry="13.2" fill="#fff3c2" transform="rotate(0 296 240)"/><ellipse cx="296" cy="224" rx="5.1" ry="13.2" fill="#fff3c2" transform="rotate(45 296 240)"/><ellipse cx="296" cy="224" rx="5.1" ry="13.2" fill="#fff3c2" transform="rotate(90 296 240)"/><ellipse cx="296" cy="224" rx="5.1" ry="13.2" fill="#fff3c2" transform="rotate(135 296 240)"/><ellipse cx="296" cy="224" rx="5.1" ry="13.2" fill="#fff3c2" transform="rotate(180 296 240)"/><ellipse cx="296" cy="224" rx="5.1" ry="13.2" fill="#fff3c2" transform="rotate(225 296 240)"/><ellipse cx="296" cy="224" rx="5.1" ry="13.2" fill="#fff3c2" transform="rotate(270 296 240)"/><ellipse cx="296" cy="224" rx="5.1" ry="13.2" fill="#fff3c2" transform="rotate(315 296 240)"/></g><g transform="rotate(16 120 258)"><ellipse cx="120" cy="258" rx="11" ry="19" fill="#5cb85f" stroke="#43290f" stroke-width="3.2"/><path d="M120,241 L120,275" stroke="#2f7a3a" stroke-width="2.6"/></g></svg>